<svg width="33" height="33" viewBox="0 0 33 33" fill="none" xmlns="http://www.w3.org/2000/svg">
<path d="M4.125 0C3.03098 0 1.98177 0.434597 1.20818 1.20818C0.434597 1.98177 0 3.03098 0 4.125L0 28.875C0 29.969 0.434597 31.0182 1.20818 31.7918C1.98177 32.5654 3.03098 33 4.125 33H28.875C29.969 33 31.0182 32.5654 31.7918 31.7918C32.5654 31.0182 33 29.969 33 28.875V4.125C33 3.03098 32.5654 1.98177 31.7918 1.20818C31.0182 0.434597 29.969 0 28.875 0L4.125 0ZM20.823 22.2812L12.375 13.8332V19.5422C12.375 19.8157 12.2664 20.078 12.073 20.2714C11.8796 20.4648 11.6173 20.5734 11.3438 20.5734C11.0702 20.5734 10.8079 20.4648 10.6145 20.2714C10.4211 20.078 10.3125 19.8157 10.3125 19.5422V11.3438C10.3125 11.0702 10.4211 10.8079 10.6145 10.6145C10.8079 10.4211 11.0702 10.3125 11.3438 10.3125H19.5422C19.8157 10.3125 20.078 10.4211 20.2714 10.6145C20.4648 10.8079 20.5734 11.0702 20.5734 11.3438C20.5734 11.6173 20.4648 11.8796 20.2714 12.073C20.078 12.2664 19.8157 12.375 19.5422 12.375H13.8332L22.2812 20.823C22.3797 20.9181 22.4582 21.0319 22.5123 21.1577C22.5663 21.2836 22.5948 21.4189 22.596 21.5558C22.5972 21.6927 22.5711 21.8285 22.5192 21.9553C22.4674 22.082 22.3908 22.1971 22.294 22.294C22.1971 22.3908 22.082 22.4674 21.9553 22.5192C21.8285 22.5711 21.6927 22.5972 21.5558 22.596C21.4189 22.5948 21.2836 22.5663 21.1577 22.5123C21.0319 22.4582 20.9181 22.3797 20.823 22.2812Z" fill="#EEF2E6"/>
</svg>
